{
    "asset" : {
        "generator" : "Khronos glTF Blender I/O v1.8.19",
        "version" : "2.0"
    },
    "scene" : 0,
    "scenes" : [
        {
            "name" : "Scene",
            "nodes" : [
                0
            ]
        }
    ],
    "nodes" : [
        {
            "mesh" : 0,
            "name" : "\u529e\u516c\u690508"
        }
    ],
    "materials" : [
        {
            "doubleSided" : true,
            "name" : "vm_v1_006_leather",
            "pbrMetallicRoughness" : {
                "baseColorFactor" : [
                    0.8274509906768799,
                    0.8117650151252747,
                    0.800000011920929,
                    1
                ],
                "metallicFactor" : 0,
                "roughnessFactor" : 0.5
            }
        },
        {
            "doubleSided" : true,
            "name" : "vm_v1_006_mesh",
            "pbrMetallicRoughness" : {
                "baseColorFactor" : [
                    0.18417298793792725,
                    0.17915020883083344,
                    0.17329008877277374,
                    1
                ],
                "metallicFactor" : 0
            }
        },
        {
            "doubleSided" : true,
            "name" : "vm_v1_006_metal",
            "pbrMetallicRoughness" : {
                "baseColorFactor" : [
                    0.8549020290374756,
                    0.8549020290374756,
                    0.8549020290374756,
                    1
                ],
                "metallicFactor" : 0,
                "roughnessFactor" : 0.5
            }
        },
        {
            "doubleSided" : true,
            "name" : "vm_v1_006_plastic",
            "pbrMetallicRoughness" : {
                "baseColorFactor" : [
                    0.1647060066461563,
                    0.1647060066461563,
                    0.1647060066461563,
                    1
                ],
                "metallicFactor" : 0,
                "roughnessFactor" : 0.5
            }
        },
        {
            "doubleSided" : true,
            "name" : "vm_v1_006_chrome",
            "pbrMetallicRoughness" : {
                "baseColorFactor" : [
                    0.18431399762630463,
                    0.18431399762630463,
                    0.18431399762630463,
                    1
                ],
                "metallicFactor" : 0,
                "roughnessFactor" : 0.5
            }
        }
    ],
    "meshes" : [
        {
            "name" : "Obj3d66-1066551-6-76",
            "primitives" : [
                {
                    "attributes" : {
                        "POSITION" : 0,
                        "NORMAL" : 1,
                        "TEXCOORD_0" : 2
                    },
                    "indices" : 3,
                    "material" : 0
                },
                {
                    "attributes" : {
                        "POSITION" : 4,
                        "NORMAL" : 5,
                        "TEXCOORD_0" : 6
                    },
                    "indices" : 7,
                    "material" : 1
                },
                {
                    "attributes" : {
                        "POSITION" : 8,
                        "NORMAL" : 9,
                        "TEXCOORD_0" : 10
                    },
                    "indices" : 11,
                    "material" : 2
                },
                {
                    "attributes" : {
                        "POSITION" : 12,
                        "NORMAL" : 13,
                        "TEXCOORD_0" : 14
                    },
                    "indices" : 15,
                    "material" : 3
                },
                {
                    "attributes" : {
                        "POSITION" : 16,
                        "NORMAL" : 17,
                        "TEXCOORD_0" : 18
                    },
                    "indices" : 19,
                    "material" : 4
                }
            ]
        }
    ],
    "accessors" : [
        {
            "bufferView" : 0,
            "componentType" : 5126,
            "count" : 1146,
            "max" : [
                0.29949986934661865,
                0.7309130430221558,
                0.28791263699531555
            ],
            "min" : [
                -0.3402312397956848,
                0.6537260413169861,
                -0.3305344581604004
            ],
            "type" : "VEC3"
        },
        {
            "bufferView" : 1,
            "componentType" : 5126,
            "count" : 1146,
            "type" : "VEC3"
        },
        {
            "bufferView" : 2,
            "componentType" : 5126,
            "count" : 1146,
            "type" : "VEC2"
        },
        {
            "bufferView" : 3,
            "componentType" : 5123,
            "count" : 6480,
            "type" : "SCALAR"
        },
        {
            "bufferView" : 4,
            "componentType" : 5126,
            "count" : 2228,
            "max" : [
                0.3595017194747925,
                0.8904310464859009,
                0.3668225407600403
            ],
            "min" : [
                -0.34105271100997925,
                0.4403560161590576,
                -0.34058064222335815
            ],
            "type" : "VEC3"
        },
        {
            "bufferView" : 5,
            "componentType" : 5126,
            "count" : 2228,
            "type" : "VEC3"
        },
        {
            "bufferView" : 6,
            "componentType" : 5126,
            "count" : 2228,
            "type" : "VEC2"
        },
        {
            "bufferView" : 7,
            "componentType" : 5123,
            "count" : 11094,
            "type" : "SCALAR"
        },
        {
            "bufferView" : 8,
            "componentType" : 5126,
            "count" : 17173,
            "max" : [
                0.35580742359161377,
                0.8947490453720093,
                0.3630374073982239
            ],
            "min" : [
                -0.34942758083343506,
                0.0792580097913742,
                -0.34699589014053345
            ],
            "type" : "VEC3"
        },
        {
            "bufferView" : 9,
            "componentType" : 5126,
            "count" : 17173,
            "type" : "VEC3"
        },
        {
            "bufferView" : 10,
            "componentType" : 5126,
            "count" : 17173,
            "type" : "VEC2"
        },
        {
            "bufferView" : 11,
            "componentType" : 5123,
            "count" : 99222,
            "type" : "SCALAR"
        },
        {
            "bufferView" : 12,
            "componentType" : 5126,
            "count" : 3969,
            "max" : [
                0.3325059413909912,
                0.26746103167533875,
                0.31243017315864563
            ],
            "min" : [
                -0.3595017194747925,
                1.3128101272741333e-08,
                -0.3668225407600403
            ],
            "type" : "VEC3"
        },
        {
            "bufferView" : 13,
            "componentType" : 5126,
            "count" : 3969,
            "type" : "VEC3"
        },
        {
            "bufferView" : 14,
            "componentType" : 5126,
            "count" : 3969,
            "type" : "VEC2"
        },
        {
            "bufferView" : 15,
            "componentType" : 5123,
            "count" : 22230,
            "type" : "SCALAR"
        },
        {
            "bufferView" : 16,
            "componentType" : 5126,
            "count" : 7727,
            "max" : [
                0.3309304118156433,
                0.8935030102729797,
                0.3104572296142578
            ],
            "min" : [
                -0.3579261302947998,
                0.0037710131146013737,
                -0.36484813690185547
            ],
            "type" : "VEC3"
        },
        {
            "bufferView" : 17,
            "componentType" : 5126,
            "count" : 7727,
            "type" : "VEC3"
        },
        {
            "bufferView" : 18,
            "componentType" : 5126,
            "count" : 7727,
            "type" : "VEC2"
        },
        {
            "bufferView" : 19,
            "componentType" : 5123,
            "count" : 41664,
            "type" : "SCALAR"
        }
    ],
    "bufferViews" : [
        {
            "buffer" : 0,
            "byteLength" : 13752,
            "byteOffset" : 0
        },
        {
            "buffer" : 0,
            "byteLength" : 13752,
            "byteOffset" : 13752
        },
        {
            "buffer" : 0,
            "byteLength" : 9168,
            "byteOffset" : 27504
        },
        {
            "buffer" : 0,
            "byteLength" : 12960,
            "byteOffset" : 36672
        },
        {
            "buffer" : 0,
            "byteLength" : 26736,
            "byteOffset" : 49632
        },
        {
            "buffer" : 0,
            "byteLength" : 26736,
            "byteOffset" : 76368
        },
        {
            "buffer" : 0,
            "byteLength" : 17824,
            "byteOffset" : 103104
        },
        {
            "buffer" : 0,
            "byteLength" : 22188,
            "byteOffset" : 120928
        },
        {
            "buffer" : 0,
            "byteLength" : 206076,
            "byteOffset" : 143116
        },
        {
            "buffer" : 0,
            "byteLength" : 206076,
            "byteOffset" : 349192
        },
        {
            "buffer" : 0,
            "byteLength" : 137384,
            "byteOffset" : 555268
        },
        {
            "buffer" : 0,
            "byteLength" : 198444,
            "byteOffset" : 692652
        },
        {
            "buffer" : 0,
            "byteLength" : 47628,
            "byteOffset" : 891096
        },
        {
            "buffer" : 0,
            "byteLength" : 47628,
            "byteOffset" : 938724
        },
        {
            "buffer" : 0,
            "byteLength" : 31752,
            "byteOffset" : 986352
        },
        {
            "buffer" : 0,
            "byteLength" : 44460,
            "byteOffset" : 1018104
        },
        {
            "buffer" : 0,
            "byteLength" : 92724,
            "byteOffset" : 1062564
        },
        {
            "buffer" : 0,
            "byteLength" : 92724,
            "byteOffset" : 1155288
        },
        {
            "buffer" : 0,
            "byteLength" : 61816,
            "byteOffset" : 1248012
        },
        {
            "buffer" : 0,
            "byteLength" : 83328,
            "byteOffset" : 1309828
        }
    ],
    "buffers" : [
        {
            "byteLength" : 1393156,
            "uri" : "data:application/octet-stream;base64,"
        }
    ]
}
